<?xml version="1.0" encoding="utf-8"?>
<!-- Generator: Adobe Illustrator 18.0.0, SVG Export Plug-In . SVG Version: 6.00 Build 0)  -->
<!DOCTYPE svg PUBLIC "-//W3C//DTD SVG 1.1//EN" "http://www.w3.org/Graphics/SVG/1.1/DTD/svg11.dtd">
<svg version="1.1" id="Capa_1" xmlns="http://www.w3.org/2000/svg" xmlns:xlink="http://www.w3.org/1999/xlink" x="0px" y="0px"
	 viewBox="0.2 0 4.3 4.9" enable-background="new 0.2 0 4.3 4.9" xml:space="preserve">
<g id="surface1">
	<path d="M3.2,2.9c0.5-0.8,0.3-2-0.4-2.5S1-0.1,0.5,0.8C0,1.6,0.2,2.7,0.9,3.3c0.5,0.4,1.2,0.4,1.8,0.1l1.2,1.3
		c0.1,0.2,0.3,0.2,0.5,0c0.1-0.1,0.1-0.4,0-0.5c0,0,0,0,0,0L3.2,2.9z M1.9,3C1.3,3,0.8,2.5,0.8,1.8c0-0.7,0.5-1.2,1.1-1.2
		c0.6,0,1.1,0.5,1.1,1.2C2.9,2.5,2.4,3,1.9,3C1.9,3,1.9,3,1.9,3z"/>
</g>
</svg>
